Patient4_TMGait_0pt4_02_left_15_GRF.mot
version=1
nRows=38
nColumns=19
inDegrees=no
endheader
time	F1x	F1y	F1z	M1x	M1y	M1z	F2x	F2y	F2z	M2x	M2y	M2z	EC1x	EC1y	EC1z	EC2x	EC2y	EC2z
19.98	3.3599	20.1789	1.6348	-5.7865	-0.31102	21.5349	-22.9701	741.0143	-63.9752	291.028	74.5719	828.6585	-0.0592	0.0182	-0.0073	-0.0462	0.0165	0.9585
19.9935	2.1979	14.2905	1.0809	-4.1363	-0.23986	15.4355	-21.6804	738.5133	-60.6433	289.0984	71.7394	820.9404	-0.0592	0.0182	-0.0073	-0.0462	0.0165	0.9585
20.007	1.2294	9.3457	0.6231	-2.754	-0.17469	10.3225	-19.9808	737.0007	-57.8187	287.5563	68.9656	814.1229	-0.0592	0.0182	-0.0073	-0.0462	0.0165	0.9585
20.0205	0.50184	5.6235	0.28753	-1.7155	-0.12174	6.4804	-17.9465	737.2713	-55.8103	286.745	66.5372	809.2739	-0.0592	0.0182	-0.0073	-0.0462	0.0165	0.9585
20.034	0.0034023	3.1029	0.059501	-1.0127	-0.076749	3.878	-15.6812	739.8407	-54.7371	286.8682	64.6391	807.0384	-0.0592	0.0182	-0.0073	-0.0462	0.0165	0.9585
20.0475	-0.31156	1.6021	-0.07143	-0.59131	-0.051457	2.309	-13.2872	744.7842	-54.526	287.948	63.3055	807.5139	-0.0592	0.0182	-0.0073	-0.0462	0.0165	0.9585
20.061	-0.48724	0.86247	-0.12979	-0.3782	-0.046098	1.4996	-10.8689	751.6668	-55.0276	289.809	62.4988	810.2277	-0.0592	0.0182	-0.0073	-0.0462	0.0165	0.9585
20.0745	-0.5763	0.59865	-0.13218	-0.29446	-0.067523	1.1606	-8.5061	759.615	-56.0174	292.1107	62.087	814.2342	-0.0592	0.0182	-0.0073	-0.0462	0.0165	0.9585
20.088	-0.61699	0.54666	-0.099932	-0.26443	-0.11175	1.0128	-6.2478	767.4764	-57.2737	294.4055	61.9193	818.3086	-0.0592	0.0182	-0.0073	-0.0462	0.0165	0.9585
20.1015	-0.64514	0.49011	-0.051807	-0.22377	-0.17204	0.82837	-4.1273	774.0192	-58.5695	296.2146	61.8232	821.1583	-0.0592	0.0182	-0.0073	-0.0462	0.0165	0.9585
20.115	-0.67484	0.23059	-0.00096239	-0.11252	-0.23763	0.39799	-2.1352	778.1622	-59.7337	297.1187	61.6534	821.6587	-0.0592	0.0182	-0.0073	-0.0462	0.0165	0.9585
20.1285	-0.70699	-0.38341	0.036503	0.11485	-0.28925	-0.43938	-0.22571	779.1657	-60.6406	296.8301	61.2886	819.0457	-0.0592	0.0182	-0.0073	-0.0462	0.0165	0.9585
20.142	-0.72847	-1.437	0.056462	0.48764	-0.31576	-1.7816	1.6494	776.6556	-61.2623	295.2057	60.6935	812.9313	-0.0592	0.0182	-0.0073	-0.0462	0.0165	0.9585
20.1555	-0.69548	-2.9335	0.049091	1.0088	-0.29331	-3.6384	3.5516	770.7309	-61.6347	292.2852	59.8877	803.407	-0.0592	0.0182	-0.0073	-0.0462	0.0165	0.9585
20.169	-0.55603	-4.7642	0.011148	1.6405	-0.19806	-5.8756	5.5712	762.0305	-61.8373	288.3165	58.9215	791.1171	-0.0592	0.0182	-0.0073	-0.0462	0.0165	0.9585
20.1825	-0.22568	-6.6392	-0.061697	2.2832	0.0047959	-8.1463	7.7906	751.6248	-61.9651	283.7163	57.8596	777.1433	-0.0592	0.0182	-0.0073	-0.0462	0.0165	0.9585
20.196	0.38581	-8.0179	-0.16341	2.7544	0.34148	-9.7993	10.2733	740.7809	-62.1118	278.9776	56.767	762.7619	-0.0592	0.0182	-0.0073	-0.0462	0.0165	0.9585
20.2095	1.3764	-8.0657	-0.28541	2.7698	0.82948	-9.827	13.0676	730.6848	-62.3763	274.5609	55.7178	749.1705	-0.0592	0.0182	-0.0073	-0.0462	0.0165	0.9585
20.223	2.8138	-5.5937	-0.41131	1.9244	1.4665	-6.7844	16.1705	722.1891	-62.8368	270.7985	54.7814	737.2427	-0.0592	0.0182	-0.0073	-0.0462	0.0165	0.9585
20.2365	4.7079	0.94773	-0.50858	-0.3054	2.2108	1.2019	19.5081	715.5942	-63.5453	267.8079	54.0274	727.3142	-0.0592	0.0182	-0.0073	-0.0462	0.0165	0.9585
20.25	6.9646	13.337	-0.53543	-4.5252	2.9727	16.2717	22.9256	710.5067	-64.4742	265.4383	53.4822	719.0561	-0.0592	0.0182	-0.0073	-0.0462	0.0165	0.9585
20.2635	9.2958	33.3459	-0.41679	-11.343	3.566	40.564	26.195	705.7974	-65.5047	263.2579	53.1139	711.4308	-0.0592	0.0182	-0.0073	-0.0462	0.0165	0.9585
20.277	11.1674	62.2759	-0.053544	-21.213	3.6933	75.6375	29.0316	699.7018	-66.3962	260.5977	52.7982	702.7932	-0.0592	0.0182	-0.0073	-0.0462	0.0165	0.9585
20.2905	11.6916	100.1904	0.68066	-34.1708	2.9088	121.5476	31.1293	690.0665	-66.8247	256.6484	52.3383	691.1313	-0.0592	0.0182	-0.0073	-0.0462	0.0165	0.9585
20.304	9.6886	144.9736	1.915	-49.5056	0.66413	175.7024	32.2159	674.783	-66.4187	250.6249	51.4874	674.4653	-0.0592	0.0182	-0.0073	-0.0462	0.0165	0.9585
20.3175	4.7514	192.1325	3.9485	-65.6625	-3.5389	232.6442	32.1366	652.3457	-64.8778	241.9774	50.0276	651.3683	-0.0592	0.0182	-0.0073	-0.0462	0.0165	0.9585
20.331	-1.7627	236.4318	7.2689	-80.8176	-9.7462	285.8962	30.9407	622.4463	-62.0608	230.6122	47.8186	621.5066	-0.0592	0.0182	-0.0073	-0.0462	0.0165	0.9585
20.3445	-8.2541	275.3927	11.5422	-94.1292	-16.9995	332.1863	28.9192	586.1729	-58.1131	216.9519	44.9007	585.8255	-0.0592	0.0182	-0.0073	-0.0462	0.0165	0.9585
20.358	-13.9589	310.2034	16.4725	-106.0061	-24.6624	372.7968	26.5334	545.4585	-53.4069	201.7258	41.4548	546.0377	-0.0592	0.0182	-0.0073	-0.0462	0.0165	0.9585
20.3715	-18.5871	343.5079	21.5523	-117.3792	-32.0577	410.8847	24.2305	502.258	-48.3358	185.6648	37.6698	503.8616	-0.0592	0.0182	-0.0073	-0.0462	0.0165	0.9585
20.385	-22.0941	377.5725	26.6168	-129.0383	-38.9476	449.237	22.2878	457.9674	-43.1391	169.2869	33.6452	460.507	-0.0592	0.0182	-0.0073	-0.0462	0.0165	0.9585
20.3985	-24.4609	413.4899	31.3464	-141.3748	-44.9863	489.1511	20.7542	413.3401	-37.8968	152.8594	29.4156	416.6275	-0.0592	0.0182	-0.0073	-0.0462	0.0165	0.9585
20.412	-25.7349	451.1718	35.7332	-154.3482	-50.1675	530.5598	19.5006	368.6309	-32.6297	136.4587	25.0238	372.4347	-0.0592	0.0182	-0.0073	-0.0462	0.0165	0.9585
20.4255	-25.9418	489.8726	39.6477	-167.6951	-54.3935	572.614	18.2681	323.9343	-27.3984	120.0902	20.5995	328.0266	-0.0592	0.0182	-0.0073	-0.0462	0.0165	0.9585
20.439	-25.1413	528.6745	43.2341	-181.0796	-57.8514	614.3285	16.7572	279.4607	-22.3569	103.7969	16.383	283.6437	-0.0592	0.0182	-0.0073	-0.0462	0.0165	0.9585
20.4525	-23.389	566.7528	46.4407	-194.2165	-60.5382	654.7742	14.7092	235.7498	-17.6898	87.7501	12.6393	239.8653	-0.0592	0.0182	-0.0073	-0.0462	0.0165	0.9585
20.466	-20.8963	603.3728	49.4	-206.8489	-62.6754	693.1721	11.9966	193.7522	-13.5705	72.2822	9.5904	197.6923	-0.0592	0.0182	-0.0073	-0.0462	0.0165	0.9585
20.4795	-18.0425	637.8989	52.1385	-218.7591	-64.4408	728.8839	8.7189	154.7317	-10.0939	57.8536	7.3171	158.415	-0.0592	0.0182	-0.0073	-0.0462	0.0165	0.9585
